<?xml version="1.0" standalone="no"?>
<!DOCTYPE svg PUBLIC "-//W3C//DTD SVG 20010904//EN"
 "http://www.w3.org/TR/2001/REC-SVG-20010904/DTD/svg10.dtd">
<svg version="1.0" xmlns="http://www.w3.org/2000/svg"
 width="28" height="28" viewBox="0 0 512.000000 512.000000"
 preserveAspectRatio="xMidYMid meet">
<metadata>
Created by potrace 1.14, written by Peter Selinger 2001-2017
</metadata>
<g transform="translate(0.000000,512.000000) scale(0.100000,-0.100000)"
fill="#000000" stroke="none">
<path d="M1690 4333 c-19 -10 -45 -33 -57 -52 -21 -31 -23 -45 -23 -167 l0
-134 146 0 146 0 -4 134 c-3 117 -6 138 -24 162 -50 67 -121 89 -184 57z"/>
<path d="M2225 4336 c-75 -34 -94 -84 -95 -248 l0 -108 145 0 145 0 0 133 c0
113 -3 137 -20 164 -37 61 -114 87 -175 59z"/>
<path d="M2742 4331 c-66 -31 -82 -75 -82 -228 l0 -123 145 0 145 0 0 125 c0
142 -10 180 -59 215 -45 31 -97 35 -149 11z"/>
<path d="M3270 4332 c-19 -9 -45 -32 -57 -51 -21 -31 -23 -45 -23 -167 l0
-134 145 0 145 0 0 123 c0 153 -16 197 -82 227 -53 24 -83 25 -128 2z"/>
<path d="M1492 3800 c-18 -11 -41 -34 -52 -52 -20 -32 -20 -53 -20 -1063 0
-1010 0 -1031 20 -1063 11 -18 34 -41 52 -52 32 -20 53 -20 1058 -20 956 0
1027 1 1059 18 19 9 44 30 55 45 21 28 21 34 24 1060 2 1152 7 1075 -67 1124
l-34 23 -1031 0 c-1011 0 -1032 0 -1064 -20z m1588 -1115 l0 -525 -525 0 -525
0 0 525 0 525 525 0 525 0 0 -525z"/>
<path d="M940 3560 c-81 -5 -103 -10 -148 -35 -64 -35 -96 -71 -130 -144 -21
-45 -25 -73 -30 -182 -3 -71 -1 -129 3 -129 5 0 22 11 39 24 48 36 110 65 166
77 l50 11 0 52 c0 29 5 57 12 64 8 8 64 12 185 12 l173 0 0 128 0 127 -112 0
c-62 0 -156 -2 -208 -5z"/>
<path d="M3850 3438 l0 -128 178 0 c125 0 182 -4 190 -12 7 -7 12 -35 12 -64
l0 -52 50 -11 c56 -12 118 -41 166 -77 17 -13 34 -24 39 -24 12 0 -2 250 -16
292 -22 67 -79 130 -149 166 l-65 32 -203 3 -202 2 0 -127z"/>
<path d="M860 3041 c-87 -27 -166 -96 -203 -180 -16 -36 -21 -73 -25 -178 -3
-73 -1 -133 3 -133 4 0 21 11 37 25 42 35 98 63 161 79 l52 13 3 51 c5 78 14
82 209 82 l163 0 0 125 0 125 -187 -1 c-104 0 -199 -4 -213 -8z"/>
<path d="M3850 2926 l0 -126 168 0 c202 0 212 -4 212 -81 0 -31 5 -51 13 -53
91 -25 134 -42 178 -72 29 -19 57 -37 62 -41 6 -4 8 42 5 128 -4 106 -9 144
-25 180 -28 63 -86 125 -147 157 -50 26 -56 27 -258 30 l-208 3 0 -125z"/>
<path d="M920 2530 c-60 -5 -88 -12 -130 -36 -60 -34 -120 -103 -139 -162 -14
-41 -28 -292 -17 -292 4 0 22 11 39 24 48 36 111 65 167 77 l50 11 0 52 c0 29
5 57 12 64 8 8 64 12 185 12 l173 0 0 125 c0 69 -3 125 -7 126 -32 4 -273 3
-333 -1z"/>
<path d="M3923 2532 l-73 -3 0 -124 0 -125 178 0 c125 0 182 -4 190 -12 7 -7
12 -35 12 -64 l0 -52 38 -7 c47 -8 137 -49 178 -80 18 -14 36 -25 40 -25 11 0
-3 251 -17 292 -22 67 -79 130 -149 165 -61 30 -72 32 -195 35 -71 2 -163 2
-202 0z"/>
<path d="M860 2011 c-49 -15 -106 -50 -142 -88 -54 -56 -78 -119 -85 -221 -5
-74 -3 -95 14 -133 33 -74 114 -100 181 -59 44 27 62 74 62 158 0 102 0 102
203 102 l167 0 0 125 0 125 -187 -1 c-104 0 -199 -4 -213 -8z"/>
<path d="M3850 1896 l0 -126 173 0 c208 0 207 1 207 -104 0 -109 33 -160 113
-173 54 -8 106 21 130 76 17 38 19 59 14 133 -9 141 -61 227 -172 286 -49 26
-55 27 -257 30 l-208 3 0 -125z"/>
<path d="M1610 1139 c0 -238 1 -253 21 -286 26 -42 66 -63 119 -63 52 0 92 21
122 62 22 32 23 40 26 286 l3 252 -145 0 -146 0 0 -251z"/>
<path d="M2132 1143 c3 -216 5 -252 21 -281 52 -94 203 -96 252 -3 12 25 15
74 15 281 l0 250 -146 0 -145 0 3 -247z"/>
<path d="M2660 1150 c0 -259 4 -283 53 -329 35 -32 117 -41 161 -17 17 9 40
29 51 44 19 25 20 45 23 285 l3 257 -146 0 -145 0 0 -240z"/>
<path d="M3190 1144 c0 -276 4 -296 67 -335 47 -29 131 -23 169 12 50 46 54
69 54 329 l0 240 -145 0 -145 0 0 -246z"/>
</g>
</svg>
